<svg xmlns="http://www.w3.org/2000/svg" width="56.572" height="57.072" viewBox="0 0 56.572 57.072">
  <g id="Icon_-_Whatsapp" data-name="Icon - Whatsapp" transform="translate(0 0.5)">
    <path id="Icon_-_Whatsapp-2" data-name="Icon - Whatsapp" d="M3.713,38.881A26.585,26.585,0,0,1,.5,26.217C.5,11.761,11.988,0,26.1,0S51.7,11.761,51.7,26.217,40.215,52.435,26.1,52.435a25.061,25.061,0,0,1-12.168-3.177L0,53.082ZM15.5,44.47a20.32,20.32,0,0,0,10.6,3.011c11.443,0,20.753-9.543,20.753-21.264S37.544,4.954,26.1,4.954A21.036,21.036,0,0,0,5.341,26.217,21.6,21.6,0,0,0,8.375,37.242l.538.9-2.072,7.93,7.783-2.136Zm13.042-7.517a21.015,21.015,0,0,1-4.392-2.143,25.168,25.168,0,0,1-7.043-6.7,28.666,28.666,0,0,1-1.628-2.529,14.058,14.058,0,0,1-1.554-3.672,7.674,7.674,0,0,1-.2-1.661,6.714,6.714,0,0,1,2.234-5.237,2.878,2.878,0,0,1,3.181-.482c1.076.621,1.635,2.192,2.134,3.294a5.619,5.619,0,0,1,.673,2.963A5.79,5.79,0,0,1,20.437,23.3a1.066,1.066,0,0,0-.128,1.42,16.729,16.729,0,0,0,8.288,7.27.908.908,0,0,0,1.184-.262c.612-.779,1.223-2.308,2.172-2.708,1.244-.516,2.61.2,3.666.847.983.6,2.624,1.337,2.886,2.584a3.12,3.12,0,0,1-.216,1.8,6.209,6.209,0,0,1-4.634,3.535,5.892,5.892,0,0,1-1.12.107A12.537,12.537,0,0,1,28.542,36.952Z" transform="translate(4.182 0)" fill="#fff" stroke="rgba(0,0,0,0)" stroke-width="1"/>
    <g id="whatsapp" transform="translate(0 0)" opacity="0">
      <path id="Caminho_38249" data-name="Caminho 38249" d="M28.293,0h-.014A28.268,28.268,0,0,0,5.385,44.865L1.86,55.373,12.732,51.9A28.281,28.281,0,1,0,28.293,0Z" fill="#4caf50"/>
      <path id="Caminho_38250" data-name="Caminho 38250" d="M141.185,145.084c-.7,2-3.5,3.654-5.723,4.138-1.524.326-3.514.586-10.214-2.207-8.57-3.57-14.09-12.327-14.52-12.895-.412-.568-3.463-4.637-3.463-8.845a9.382,9.382,0,0,1,2.982-7.136,4.223,4.223,0,0,1,2.982-1.052c.361,0,.685.018.977.033.857.037,1.287.088,1.852,1.448.7,1.7,2.417,5.912,2.621,6.345a1.754,1.754,0,0,1,.124,1.587,5.066,5.066,0,0,1-.944,1.345c-.43.5-.838.88-1.269,1.415-.394.466-.838.964-.343,1.825A26.006,26.006,0,0,0,120.978,137a21.416,21.416,0,0,0,6.839,4.241,1.836,1.836,0,0,0,2.056-.326,35.466,35.466,0,0,0,2.278-3.035,1.623,1.623,0,0,1,2.092-.638c.787.275,4.954,2.346,5.811,2.775s1.422.638,1.629,1A7.34,7.34,0,0,1,141.185,145.084Z" transform="translate(-95.946 -104.734)" fill="#fafafa"/>
    </g>
  </g>
</svg>
